<svg width="512" height="512" viewBox="0 0 512 512" fill="none" xmlns="http://www.w3.org/2000/svg">
<g clip-path="url(#clip0_66:296)">
<path d="M437.111 74.9118C337.24 -24.9692 174.751 -24.9692 74.8987 74.8877C-24.9727 174.745 -24.963 337.238 74.9083 437.114C174.751 536.967 337.24 536.967 437.101 437.095C536.963 337.238 536.958 174.754 437.111 74.9118ZM409.165 409.168C324.712 493.62 187.293 493.63 102.835 409.178C18.3638 324.711 18.3735 187.277 102.835 102.824C187.288 18.377 324.703 18.3673 409.174 102.834C493.627 187.286 493.617 324.721 409.165 409.168ZM371.8 357.239C374.976 364.581 371.597 373.102 364.259 376.273C356.917 379.46 348.396 376.071 345.219 368.733C331.254 336.442 298.248 315.572 261.12 315.572C223.137 315.572 189.928 336.422 176.532 368.694C174.22 374.265 168.827 377.63 163.155 377.63C161.301 377.63 159.423 377.273 157.603 376.52C150.217 373.449 146.717 364.972 149.783 357.591C167.693 314.472 211.401 286.612 261.12 286.612C309.8 286.612 353.248 314.332 371.8 357.239ZM160.466 186.683C160.466 170.154 173.872 156.748 190.402 156.748C206.926 156.748 220.332 170.149 220.332 186.683C220.332 203.222 206.926 216.623 190.402 216.623C173.872 216.623 160.466 203.222 160.466 186.683ZM296.201 186.683C296.201 170.154 309.617 156.748 326.146 156.748C342.671 156.748 356.077 170.149 356.077 186.683C356.077 203.222 342.675 216.623 326.146 216.623C309.617 216.623 296.201 203.222 296.201 186.683Z" fill="#FA6060"/>
</g>
<defs>
<clipPath id="clip0_66:296">
<rect width="512" height="512" fill="white"/>
</clipPath>
</defs>
</svg>
