<svg width="512" height="512" viewBox="0 0 512 512" fill="none" xmlns="http://www.w3.org/2000/svg">
<g clip-path="url(#clip0_66:299)">
<path d="M256 512C187.62 512 123.333 485.371 74.98 437.02C26.629 388.667 0 324.38 0 256C0 187.62 26.629 123.333 74.98 74.98C123.333 26.629 187.62 0 256 0C324.38 0 388.667 26.629 437.02 74.98C485.371 123.333 512 187.62 512 256C512 324.38 485.371 388.667 437.02 437.02C388.667 485.371 324.38 512 256 512V512ZM256 40C136.897 40 40 136.897 40 256C40 375.103 136.897 472 256 472C375.103 472 472 375.103 472 256C472 136.897 375.103 40 256 40ZM349.737 300.188C340.418 294.257 328.056 297.004 322.127 306.324C321.88 306.711 296.99 345.061 255 345.061C213.01 345.061 188.12 306.711 187.873 306.324C181.943 297.005 169.582 294.258 160.263 300.188C150.944 306.118 148.197 318.48 154.127 327.798C155.615 330.136 191.299 385.061 255 385.061C318.701 385.061 354.385 330.137 355.873 327.798C361.803 318.479 359.056 306.118 349.737 300.188V300.188ZM168 165C181.807 165 193 176.193 193 190C193 203.807 181.807 215 168 215C154.193 215 143 203.807 143 190C143 176.193 154.193 165 168 165ZM318 190C318 203.807 329.193 215 343 215C356.807 215 368 203.807 368 190C368 176.193 356.807 165 343 165C329.193 165 318 176.193 318 190Z" fill="#6DC856"/>
</g>
<defs>
<clipPath id="clip0_66:299">
<rect width="512" height="512" fill="white"/>
</clipPath>
</defs>
</svg>
