<svg width="24" height="24" viewBox="0 0 24 24" fill="none" xmlns="http://www.w3.org/2000/svg">
<path d="M6 1.5H3.75C3.54289 1.5 3.375 1.66789 3.375 1.875V3.75C3.375 3.95711 3.54289 4.125 3.75 4.125H6C6.20711 4.125 6.375 3.95711 6.375 3.75V1.875C6.375 1.66789 6.20711 1.5 6 1.5Z" fill="#B3DAFE"/>
<path d="M20.25 1.5H18C17.7929 1.5 17.625 1.66789 17.625 1.875V3.75C17.625 3.95711 17.7929 4.125 18 4.125H20.25C20.4571 4.125 20.625 3.95711 20.625 3.75V1.875C20.625 1.66789 20.4571 1.5 20.25 1.5Z" fill="#B3DAFE"/>
<path d="M14.9604 3.95726C14.9292 3.89497 14.8813 3.84259 14.8221 3.80598C14.7628 3.76938 14.6946 3.74999 14.6249 3.75H9.37492C9.30528 3.74999 9.23701 3.76938 9.17776 3.80598C9.11852 3.84259 9.07064 3.89497 9.03948 3.95726L8.28948 5.45726C8.26089 5.51444 8.24739 5.57798 8.25026 5.64184C8.25313 5.7057 8.27228 5.76777 8.30589 5.82215C8.3395 5.87653 8.38645 5.92142 8.44229 5.95254C8.49812 5.98367 8.56099 6.00001 8.62492 6H15.3749C15.4388 6.00001 15.5017 5.98367 15.5576 5.95254C15.6134 5.92142 15.6603 5.87653 15.694 5.82215C15.7276 5.76777 15.7467 5.7057 15.7496 5.64184C15.7525 5.57798 15.739 5.51444 15.7104 5.45726L14.9604 3.95726Z" fill="#FF6E6E"/>
<path d="M6.75 3.375H3C2.79289 3.375 2.625 3.54289 2.625 3.75V5.625C2.625 5.83211 2.79289 6 3 6H6.75C6.95711 6 7.125 5.83211 7.125 5.625V3.75C7.125 3.54289 6.95711 3.375 6.75 3.375Z" fill="#FF6E6E"/>
<path d="M21 3.375H17.25C17.0429 3.375 16.875 3.54289 16.875 3.75V5.625C16.875 5.83211 17.0429 6 17.25 6H21C21.2071 6 21.375 5.83211 21.375 5.625V3.75C21.375 3.54289 21.2071 3.375 21 3.375Z" fill="#FF6E6E"/>
<path d="M22.125 8.25H1.875C1.66789 8.25 1.5 8.41789 1.5 8.625V22.125C1.5 22.3321 1.66789 22.5 1.875 22.5H22.125C22.3321 22.5 22.5 22.3321 22.5 22.125V8.625C22.5 8.41789 22.3321 8.25 22.125 8.25Z" fill="#FF6E6E"/>
<path d="M23.625 5.25H0.375C0.167893 5.25 0 5.41789 0 5.625V8.625C0 8.83211 0.167893 9 0.375 9H23.625C23.8321 9 24 8.83211 24 8.625V5.625C24 5.41789 23.8321 5.25 23.625 5.25Z" fill="#B3DAFE"/>
<path d="M19.875 10.5H19.5V10.125C19.5 10.0255 19.4605 9.93016 19.3902 9.85983C19.3198 9.78951 19.2245 9.75 19.125 9.75C19.0255 9.75 18.9302 9.78951 18.8598 9.85983C18.7895 9.93016 18.75 10.0255 18.75 10.125V10.5H18.375C18.2755 10.5 18.1802 10.5395 18.1098 10.6098C18.0395 10.6802 18 10.7755 18 10.875C18 10.9745 18.0395 11.0698 18.1098 11.1402C18.1802 11.2105 18.2755 11.25 18.375 11.25H18.75V11.625C18.75 11.7245 18.7895 11.8198 18.8598 11.8902C18.9302 11.9605 19.0255 12 19.125 12C19.2245 12 19.3198 11.9605 19.3902 11.8902C19.4605 11.8198 19.5 11.7245 19.5 11.625V11.25H19.875C19.9745 11.25 20.0698 11.2105 20.1402 11.1402C20.2105 11.0698 20.25 10.9745 20.25 10.875C20.25 10.7755 20.2105 10.6802 20.1402 10.6098C20.0698 10.5395 19.9745 10.5 19.875 10.5Z" fill="#FEDF30"/>
<path d="M5.625 11.25H4.125C4.02554 11.25 3.93016 11.2105 3.85984 11.1402C3.78951 11.0698 3.75 10.9745 3.75 10.875C3.75 10.7755 3.78951 10.6802 3.85984 10.6098C3.93016 10.5395 4.02554 10.5 4.125 10.5H5.625C5.72446 10.5 5.81984 10.5395 5.89016 10.6098C5.96049 10.6802 6 10.7755 6 10.875C6 10.9745 5.96049 11.0698 5.89016 11.1402C5.81984 11.2105 5.72446 11.25 5.625 11.25Z" fill="#FEDF30"/>
</svg>
