<svg width="512" height="512" viewBox="0 0 512 512" fill="none" xmlns="http://www.w3.org/2000/svg">
<path d="M347.216 301.209L275.829 247.669V138.607C275.829 127.641 266.965 118.777 255.999 118.777C245.033 118.777 236.169 127.641 236.169 138.607V257.585C236.169 263.831 239.104 269.721 244.101 273.449L323.419 332.938C326.988 335.615 331.153 336.904 335.297 336.904C341.345 336.904 347.294 334.187 351.181 328.952C357.766 320.206 355.981 307.773 347.216 301.209Z" fill="black"/>
<path d="M256 0C114.833 0 0 114.833 0 256C0 397.167 114.833 512 256 512C397.167 512 512 397.167 512 256C512 114.833 397.167 0 256 0ZM256 472.341C136.725 472.341 39.659 375.275 39.659 256C39.659 136.725 136.725 39.659 256 39.659C375.295 39.659 472.341 136.725 472.341 256C472.341 375.275 375.275 472.341 256 472.341Z" fill="black"/>
</svg>
