<svg width="512" height="512" viewBox="0 0 512 512" fill="none" xmlns="http://www.w3.org/2000/svg">
<g clip-path="url(#clip0)">
<path d="M184.743 95.1793C193.027 95.1793 199.743 88.4633 199.743 80.1793V49.9743C199.743 41.6903 193.027 34.9743 184.743 34.9743C176.459 34.9743 169.743 41.6903 169.743 49.9743V80.1793C169.743 88.4633 176.459 95.1793 184.743 95.1793Z" fill="black"/>
<path d="M48.6611 150.086L22.5021 134.983C15.3271 130.839 6.15307 133.299 2.01208 140.473C-2.12993 147.648 0.328075 156.822 7.50208 160.963L33.6611 176.066C40.8191 180.2 50.0001 177.767 54.1511 170.576C58.2931 163.401 55.8351 154.227 48.6611 150.086V150.086Z" fill="black"/>
<path d="M33.6611 315.882L7.50208 330.984C0.328075 335.126 -2.12993 344.299 2.01208 351.474C6.17508 358.684 15.3621 361.088 22.5021 356.964L48.6611 341.861C55.8351 337.719 58.2931 328.546 54.1511 321.371C50.0091 314.198 40.8371 311.737 33.6611 315.882Z" fill="black"/>
<path d="M335.824 176.066L361.983 160.963C369.157 156.821 371.615 147.648 367.473 140.473C363.331 133.299 354.159 130.839 346.983 134.983L320.824 150.086C313.65 154.228 311.192 163.401 315.334 170.576C319.497 177.786 328.684 180.19 335.824 176.066Z" fill="black"/>
<path d="M398.907 267.268C381.736 224.836 340.084 196.78 294.262 196.978C275.485 155.169 233.465 125.973 184.742 125.973C118.574 125.973 64.7433 179.805 64.7433 245.973C64.7433 288.424 86.9113 325.782 120.268 347.12C84.7013 403.308 125.141 476.973 191.678 476.973C427.691 476.727 414.777 477.577 418.887 476.301C471.314 470.388 512.001 425.922 512.001 371.974C512.001 310.367 459.359 262.533 398.907 267.268V267.268ZM94.7433 245.974C94.7433 196.348 135.117 155.974 184.743 155.974C218.208 155.974 247.449 174.344 262.955 201.521C215.555 215.41 182.644 258.683 182.116 308.331C167.216 309.966 153.167 315.533 141.067 324.632C113.462 309.243 94.7433 279.758 94.7433 245.974V245.974ZM413.213 446.716C407.87 447.15 271.749 446.898 191.678 446.974C142.217 446.974 118.114 385.664 154.915 352.058C165.961 341.971 180.67 336.604 196.698 338.062C206.367 338.934 214.246 330.569 212.911 321.042C205.957 271.411 244.391 226.974 294.601 226.974C331.745 226.974 364.483 251.976 374.213 287.775C376.293 295.424 383.966 300.131 391.725 298.53C438.478 288.861 482.001 324.601 482.001 371.974C482.001 410.73 451.786 443.561 413.213 446.716V446.716Z" fill="black"/>
</g>
<defs>
<clipPath id="clip0">
<rect width="512" height="512" fill="white"/>
</clipPath>
</defs>
</svg>
