<svg width="512" height="512" viewBox="0 0 512 512" fill="none" xmlns="http://www.w3.org/2000/svg">
<path d="M256 176C211.888 176 176 211.888 176 256C176 300.112 211.888 336 256 336C300.112 336 336 300.112 336 256C336 211.888 300.112 176 256 176ZM256 304C229.536 304 208 282.464 208 256C208 229.536 229.536 208 256 208C282.464 208 304 229.536 304 256C304 282.464 282.464 304 256 304Z" fill="black"/>
<path d="M440.416 288.576L432 283.712C421.984 277.936 416 267.568 416 256C416 244.432 421.984 234.064 432 228.288L440.416 223.424C463.392 210.16 471.248 180.832 457.984 157.856L441.984 130.144C428.752 107.216 399.328 99.344 376.416 112.576L368 117.424C357.984 123.216 346 123.216 336 117.424C325.984 111.632 320 101.28 320 89.712V80C320 53.536 298.464 32 272 32H240C213.536 32 192 53.536 192 80V89.728C192 101.296 186.016 111.648 176 117.44C165.984 123.216 154.016 123.232 144 117.44L135.584 112.576C112.672 99.344 83.2476 107.216 69.9996 130.144L53.9996 157.856C40.7356 180.832 48.5916 210.16 71.5676 223.424L79.9996 228.288C90.0156 234.064 95.9996 244.432 95.9996 256C95.9996 267.568 90.0156 277.936 79.9996 283.712L71.5836 288.576C48.6076 301.84 40.7516 331.168 54.0156 354.144L70.0156 381.856C83.2636 404.784 112.688 412.656 135.584 399.424L144 394.576C154.016 388.768 165.984 388.8 176 394.576C186.016 400.368 192 410.72 192 422.288V432C192 458.464 213.536 480 240 480H272C298.464 480 320 458.464 320 432V422.272C320 410.704 325.984 400.352 336 394.56C346 388.784 357.984 388.768 368 394.56L376.416 399.424C399.328 412.64 428.752 404.768 441.984 381.856L457.984 354.144C471.248 331.168 463.392 301.84 440.416 288.576V288.576ZM430.272 338.144L414.272 365.856C409.84 373.568 399.968 376.112 392.416 371.712L384 366.848C363.952 355.28 340.032 355.28 320 366.848C299.968 378.416 288 399.136 288 422.272V432C288 440.816 280.816 448 272 448H240C231.184 448 224 440.816 224 432V422.272C224 399.136 212.032 378.416 192 366.848C171.968 355.28 148.032 355.28 128 366.848L119.584 371.712C111.952 376.16 102.144 373.504 97.7276 365.856L81.7276 338.144C77.2476 330.384 80.0316 320.64 87.5836 316.288L95.9996 311.424C116.032 299.856 128 279.136 128 256C128 232.864 116.032 212.144 95.9996 200.576L87.5836 195.712C80.0476 191.376 77.2476 181.616 81.7276 173.856L97.7276 146.144C102.224 138.336 112.144 135.968 119.584 140.288L128 145.152C148.048 156.72 171.968 156.72 192 145.152C212.032 133.584 224 112.864 224 89.728V80C224 71.184 231.184 64 240 64H272C280.816 64 288 71.184 288 80V89.728C288 112.864 299.968 133.584 320 145.152C340.032 156.72 363.968 156.72 384 145.152L392.416 140.288C399.984 135.92 409.808 138.4 414.272 146.144L430.272 173.856C434.752 181.616 431.968 191.36 424.416 195.712L416 200.576C395.968 212.144 384 232.864 384 256C384 279.136 395.968 299.856 416 311.424L424.416 316.288C431.968 320.64 434.752 330.384 430.272 338.144Z" fill="black"/>
</svg>
