<svg width="512" height="512" viewBox="0 0 512 512" fill="none" xmlns="http://www.w3.org/2000/svg">
<g clip-path="url(#clip0_66:301)">
<path d="M499.199 221.696C499.183 221.684 499.171 221.668 499.16 221.657L290.304 12.8086C281.401 3.90235 269.565 -1 256.976 -1C244.386 -1 232.55 3.90235 223.643 12.8086L14.8969 221.551C14.8266 221.622 14.7524 221.696 14.686 221.766C-3.59528 240.153 -3.56403 269.985 14.7759 288.325C23.1548 296.708 34.2173 301.559 46.0494 302.071C46.5337 302.118 47.0181 302.141 47.5064 302.141H55.8267V455.837C55.8267 486.255 80.5768 511.001 110.995 511.001H192.706C200.991 511.001 207.706 504.282 207.706 496.001V375.501C207.706 361.622 218.999 350.333 232.878 350.333H281.073C294.952 350.333 306.241 361.622 306.241 375.501V496.001C306.241 504.282 312.956 511.001 321.241 511.001H402.952C433.374 511.001 458.12 486.255 458.12 455.837V302.141H465.839C478.425 302.141 490.261 297.239 499.171 288.329C517.531 269.961 517.539 240.075 499.199 221.696V221.696ZM477.956 267.118C474.718 270.356 470.413 272.141 465.839 272.141H443.12C434.835 272.141 428.12 278.856 428.12 287.141V455.837C428.12 469.712 416.831 481.001 402.952 481.001H336.241V375.501C336.241 345.083 311.495 320.333 281.073 320.333H232.878C202.456 320.333 177.706 345.083 177.706 375.501V481.001H110.995C97.1198 481.001 85.8268 469.712 85.8268 455.837V287.141C85.8268 278.856 79.1119 272.141 70.8267 272.141H48.4986C48.2642 272.126 48.0337 272.114 47.7955 272.11C43.3267 272.032 39.1353 270.258 35.9946 267.114C29.3149 260.434 29.3149 249.563 35.9946 242.879C35.9986 242.879 35.9986 242.875 36.0025 242.872L36.0142 242.86L244.862 34.0196C248.097 30.7813 252.397 29.0001 256.976 29.0001C261.55 29.0001 265.851 30.7813 269.089 34.0196L477.89 242.817C477.921 242.848 477.956 242.879 477.988 242.911C484.632 249.602 484.621 260.45 477.956 267.118V267.118Z" fill="black"/>
</g>
<defs>
<clipPath id="clip0_66:301">
<rect width="512" height="512" fill="white"/>
</clipPath>
</defs>
</svg>
