<svg width="512" height="512" viewBox="0 0 512 512" fill="none" xmlns="http://www.w3.org/2000/svg">
<g clip-path="url(#clip0_66:303)">
<path d="M498.184 222.695C498.172 222.684 498.16 222.672 498.148 222.66L289.293 13.8125C280.391 4.90625 268.555 0 255.965 0C243.375 0 231.539 4.90234 222.633 13.8086L13.8867 222.551C13.8164 222.621 13.7461 222.695 13.6758 222.766C-4.60547 241.152 -4.57422 270.984 13.7656 289.324C22.1445 297.707 33.2109 302.563 45.043 303.07C45.5234 303.117 46.0078 303.141 46.4961 303.141H54.8203V456.84C54.8203 487.254 79.5664 512 109.988 512H191.699C199.98 512 206.699 505.285 206.699 497V376.5C206.699 362.621 217.988 351.332 231.867 351.332H280.062C293.941 351.332 305.23 362.621 305.23 376.5V497C305.23 505.285 311.945 512 320.23 512H401.941C432.363 512 457.109 487.254 457.109 456.84V303.141H464.828C477.414 303.141 489.25 298.238 498.16 289.332C516.519 270.961 516.527 241.078 498.184 222.695V222.695Z" fill="black"/>
</g>
<defs>
<clipPath id="clip0_66:303">
<rect width="512" height="512" fill="white"/>
</clipPath>
</defs>
</svg>
