<svg width="512" height="512" viewBox="0 0 512 512" fill="none" xmlns="http://www.w3.org/2000/svg">
<g clip-path="url(#clip0)">
<path d="M255.998 512C156.307 512 75.2031 430.896 75.2031 331.205C75.2031 285.146 103.908 217.56 160.519 130.327C201.931 66.5148 243.95 14.7882 244.37 14.2732L255.998 0L267.625 14.2712C268.044 14.7872 310.065 66.5128 351.477 130.325C408.088 217.558 436.793 285.144 436.793 331.203C436.794 430.895 355.69 512 255.998 512V512ZM255.999 47.9501C240.855 67.4787 213.055 104.452 185.534 146.881C132.978 227.903 105.199 291.641 105.199 331.204C105.199 414.355 172.847 482.003 255.998 482.003C339.15 482.003 406.797 414.355 406.797 331.204C406.797 291.603 378.968 227.786 326.316 146.655C298.817 104.28 271.108 67.4297 255.999 47.9501V47.9501Z" fill="black"/>
<path d="M161.334 390.236L329.33 222.24L350.538 243.448L182.542 411.443L161.334 390.236Z" fill="black"/>
<path d="M299.578 437.26C275.564 437.26 256.028 417.724 256.028 393.71C256.028 369.696 275.564 350.161 299.578 350.161C323.592 350.161 343.127 369.696 343.127 393.71C343.127 417.724 323.592 437.26 299.578 437.26ZM299.578 380.158C292.105 380.158 286.024 386.238 286.024 393.712C286.024 401.185 292.105 407.265 299.578 407.265C307.051 407.265 313.131 401.185 313.131 393.712C313.131 386.238 307.051 380.158 299.578 380.158Z" fill="black"/>
<path d="M212.418 283.537C188.405 283.537 168.869 264.001 168.869 239.987C168.869 215.973 188.405 196.438 212.418 196.438C236.431 196.438 255.968 215.973 255.968 239.987C255.968 264.001 236.431 283.537 212.418 283.537ZM212.418 226.435C204.945 226.435 198.865 232.515 198.865 239.988C198.865 247.461 204.945 253.541 212.418 253.541C219.891 253.541 225.972 247.461 225.972 239.988C225.972 232.515 219.891 226.435 212.418 226.435Z" fill="black"/>
</g>
<defs>
<clipPath id="clip0">
<rect width="512" height="512" fill="white"/>
</clipPath>
</defs>
</svg>
