<?xml version="1.0" encoding="iso-8859-1"?>
<!-- Generator: Adobe Illustrator 19.0.0, SVG Export Plug-In . SVG Version: 6.00 Build 0)  -->
<svg version="1.1" id="Capa_1" xmlns="http://www.w3.org/2000/svg" xmlns:xlink="http://www.w3.org/1999/xlink" x="0px" y="0px"
	 viewBox="0 0 512 512" style="enable-background:new 0 0 512 512;" xml:space="preserve">
<g>
	<g>
		<path d="M468.15,112.685c-1.625-2.4-4.193-3.997-7.066-4.389c-2.871-0.392-5.775,0.456-7.984,2.333L303.578,237.661
			c-2.81,2.387-4.113,6.106-3.407,9.725c0.706,3.62,3.311,6.576,6.812,7.733l186.313,61.542c1.043,0.345,2.122,0.515,3.199,0.515
			c1.766,0,3.522-0.459,5.085-1.358c2.516-1.447,4.296-3.897,4.895-6.736c3.665-17.386,5.525-35.245,5.525-53.081
			C512,204.628,496.838,155.07,468.15,112.685z"/>
	</g>
</g>
<g>
	<g>
		<path d="M431.681,69.812C383.986,24.793,321.596,0.001,256,0.001c-41.578,0-82.882,10.215-119.447,29.539
			c-2.563,1.355-4.428,3.736-5.129,6.548c-0.702,2.813-0.174,5.791,1.452,8.191l120.15,177.331c1.625,2.399,4.194,3.993,7.065,4.384
			c0.46,0.063,0.92,0.094,1.378,0.094c2.404,0,4.749-0.851,6.604-2.426l163.21-138.661c2.21-1.878,3.516-4.608,3.592-7.506
			C434.952,74.596,433.789,71.802,431.681,69.812z"/>
	</g>
</g>
<g>
	<g>
		<path d="M488.862,354.151c-1.194-2.678-3.484-4.712-6.284-5.582l-211.869-65.861c-12.524-3.893-23.504-11.997-30.917-22.817
			L105.006,63.15c-1.634-2.386-4.205-3.966-7.072-4.346c-2.871-0.38-5.761,0.474-7.961,2.351
			C33.165,109.605,0.372,180.153,0.003,254.71c-0.34,68.786,26.024,133.389,74.235,181.91
			c48.201,48.51,112.617,75.281,181.382,75.38c0.128,0,0.25,0,0.378,0c49.908-0.001,98.273-14.37,139.874-41.563
			c40.629-26.558,72.77-63.862,92.948-107.879C490.042,359.892,490.057,356.829,488.862,354.151z"/>
	</g>
</g>
<g>
</g>
<g>
</g>
<g>
</g>
<g>
</g>
<g>
</g>
<g>
</g>
<g>
</g>
<g>
</g>
<g>
</g>
<g>
</g>
<g>
</g>
<g>
</g>
<g>
</g>
<g>
</g>
<g>
</g>
</svg>
