<svg width="512" height="512" viewBox="0 0 512 512" fill="none" xmlns="http://www.w3.org/2000/svg">
<g clip-path="url(#clip0)">
<path d="M468.148 112.681C465.759 109.151 461.98 106.804 457.756 106.227C453.527 105.65 449.262 106.898 446.014 109.657L299.411 234.208C295.278 237.72 293.362 243.188 294.4 248.511C295.438 253.834 299.268 258.182 304.418 259.883L487.092 320.224C488.626 320.731 490.214 320.981 491.796 320.981C494.395 320.981 496.977 320.306 499.275 318.984C502.974 316.856 505.592 313.253 506.473 309.077C510.141 291.692 512 273.834 512 256C512 204.629 496.836 155.07 468.148 112.681ZM479.979 286.279L339.194 239.775L452.207 143.761C471.745 177.825 482 216.296 482 256C482 266.126 481.323 276.257 479.979 286.279Z" fill="black"/>
<path d="M431.682 69.8109C383.989 24.7929 321.597 0 256.001 0C214.424 0 173.119 10.215 136.551 29.5419C132.781 31.5339 130.038 35.0359 129.006 39.1719C127.974 43.3079 128.75 47.6879 131.142 51.2169L248.946 225.086C251.337 228.614 255.115 230.959 259.338 231.534C260.014 231.626 260.691 231.672 261.364 231.672C264.9 231.672 268.348 230.421 271.076 228.104L431.098 92.1498C434.348 89.3888 436.27 85.3748 436.381 81.1108C436.492 76.8469 434.783 72.7379 431.682 69.8109ZM264.399 194.41L165.726 48.7779C194.044 36.4569 224.933 29.9999 256.001 29.9999C308.272 29.9999 358.238 47.8339 398.437 80.5328L264.399 194.41Z" fill="black"/>
<path d="M488.882 350.196C487.124 346.256 483.756 343.265 479.638 341.985L271.907 277.41C260.697 273.925 250.869 266.672 244.233 256.987H244.234L112.081 64.0894C109.677 60.5804 105.896 58.2574 101.681 57.6974C97.4663 57.1364 93.2093 58.3934 89.9733 61.1544C33.1645 109.603 0.372529 180.151 0.00452957 254.709C-0.33547 323.49 26.0295 388.092 74.2424 436.615C122.446 485.127 186.861 511.899 255.622 511.999C255.75 511.999 255.871 512 256 512C305.908 511.999 354.273 497.629 395.878 470.434C436.505 443.878 468.644 406.576 488.82 362.56C490.617 358.639 490.639 354.135 488.882 350.196ZM255.993 481.999C255.886 481.999 255.774 481.999 255.666 481.999C194.938 481.911 138.065 458.284 95.5243 415.47C52.9724 372.646 29.7045 315.606 30.0045 254.858C30.3015 194.639 54.5664 137.379 97.1053 95.3094L219.484 273.942C219.485 273.942 219.485 273.942 219.485 273.942C229.92 289.171 245.374 300.577 263.002 306.056L453.812 365.37C414.244 436.768 338.389 481.999 255.993 481.999Z" fill="black"/>
</g>
<defs>
<clipPath id="clip0">
<rect width="512" height="512" fill="white"/>
</clipPath>
</defs>
</svg>
