<svg width="512" height="512" viewBox="0 0 512 512" fill="none" xmlns="http://www.w3.org/2000/svg">
<g clip-path="url(#clip0)">
<path d="M500.862 225.774C471.241 191.407 435.913 159.15 398.474 134.745L481.783 51.4362C487.643 45.5772 487.643 36.0751 481.783 30.2161C475.924 24.3571 466.422 24.3571 460.563 30.2161L371.834 118.945C332.624 97.9732 293.799 87.3611 256 87.3611C161.689 87.3611 72.5483 154.524 11.1383 225.774C-3.71171 243.005 -3.71171 268.992 11.1383 286.223C40.7593 320.59 76.0873 352.847 113.526 377.252L30.2173 460.561C24.3573 466.42 24.3573 475.922 30.2173 481.781C36.0783 487.642 45.5783 487.641 51.4373 481.781L140.166 393.052C179.376 414.024 218.2 424.636 255.999 424.636C350.31 424.636 439.451 357.473 500.861 286.223C515.713 268.993 515.713 243.005 500.862 225.774V225.774ZM33.8703 266.63C28.5613 260.47 28.5613 251.527 33.8703 245.367C67.0393 206.883 155.083 117.372 256 117.372C289.052 117.372 320.723 126.975 349.538 141.241L308.385 182.394C293.598 171.84 275.512 165.623 256 165.623C206.167 165.623 165.624 206.166 165.624 255.999C165.624 275.51 171.84 293.596 182.394 308.384L135.274 355.504C88.9783 326.514 52.6383 288.406 33.8703 266.63V266.63ZM316.365 255.999C316.365 289.284 289.285 316.364 256 316.364C244.789 316.364 234.289 313.282 225.284 307.936L266.61 266.61L307.936 225.284C313.283 234.288 316.365 244.788 316.365 255.999ZM195.635 255.999C195.635 222.714 222.715 195.634 256 195.634C267.211 195.634 277.711 198.716 286.716 204.063L245.39 245.389L204.064 286.715C198.717 277.71 195.635 267.21 195.635 255.999V255.999ZM478.13 266.63C444.961 305.115 356.917 394.626 256 394.626C222.948 394.626 191.277 385.023 162.462 370.757L203.615 329.604C218.402 340.158 236.488 346.375 256 346.375C305.833 346.375 346.376 305.832 346.376 255.999C346.376 236.488 340.16 218.402 329.605 203.614L376.725 156.494C423.021 185.484 459.361 223.592 478.129 245.367C483.439 251.527 483.439 260.47 478.13 266.63V266.63Z" fill="black"/>
</g>
<defs>
<clipPath id="clip0">
<rect width="512" height="512" fill="white"/>
</clipPath>
</defs>
</svg>
