<svg width="512" height="512" viewBox="0 0 512 512" fill="none" xmlns="http://www.w3.org/2000/svg">
<g clip-path="url(#clip0)">
<path d="M86.8817 155.291L172.204 240.613C191.571 225.12 215.093 215.051 241 212.136V91.3795C182 94.8365 128.43 118.331 86.8817 155.291Z" fill="black"/>
<path d="M65.671 176.502C25.584 221.564 0 280.704 0 345.62C0 353.911 6.709 360.62 15 360.62H106C114.291 360.62 121 353.911 121 345.62C121 313.807 132.517 284.921 150.993 261.824L65.671 176.502Z" fill="black"/>
<path d="M371.898 228.331C366.844 223.922 359.52 223.351 353.939 226.969L223.759 310.01C206.371 321.113 196 340.024 196 360.62C196 393.711 222.909 420.62 256 420.62C279.262 420.62 300.619 406.997 310.404 385.918L375.604 245.938C378.417 239.903 376.908 232.725 371.898 228.331Z" fill="black"/>
<path d="M446.329 176.502L402.241 220.59C407.793 232.441 408.523 246.314 402.792 258.608L383.068 300.953C388.146 314.902 391 329.895 391 345.62C391 353.911 397.709 360.62 406 360.62H497C505.291 360.62 512 353.911 512 345.62C512 280.704 486.416 221.564 446.329 176.502Z" fill="black"/>
<path d="M271 91.3795V212.136C283.629 213.557 295.662 216.736 306.953 221.355L337.812 201.669C350.175 193.657 365.283 191.938 381.017 199.392L425.118 155.291C383.57 118.331 330 94.8365 271 91.3795Z" fill="black"/>
</g>
<defs>
<clipPath id="clip0">
<rect width="512" height="512" fill="white"/>
</clipPath>
</defs>
</svg>
