<svg width="512" height="512" viewBox="0 0 512 512" fill="none" xmlns="http://www.w3.org/2000/svg">
<path d="M128 201.142H18.2861C8.18678 201.142 0 209.329 0 219.428V493.714C0 503.813 8.18678 512 18.2861 512H128C138.1 512 146.286 503.813 146.286 493.714V219.428C146.285 209.329 138.098 201.142 128 201.142ZM109.714 475.428H36.571V237.714H109.714V475.428Z" fill="black"/>
<path d="M310.857 0H201.142C191.043 0 182.856 8.18678 182.856 18.2861V493.714C182.856 503.813 191.043 512 201.142 512H310.857C320.956 512 329.143 503.813 329.143 493.714V18.2861C329.143 8.18678 320.956 0 310.857 0ZM292.572 475.428H219.428V36.571H292.572V475.428Z" fill="black"/>
<path d="M493.713 146.285H383.999C373.899 146.285 365.713 154.472 365.713 164.571V493.714C365.713 503.813 373.899 512 383.999 512H493.713C503.812 512 511.999 503.813 511.999 493.714V164.571C511.999 154.472 503.812 146.285 493.713 146.285ZM475.427 475.428H402.284V182.857H475.427V475.428Z" fill="black"/>
</svg>
