<svg width="512" height="512" viewBox="0 0 512 512" fill="none" xmlns="http://www.w3.org/2000/svg">
<g clip-path="url(#clip0)">
<path d="M256.001 127.761C185.289 127.761 127.762 185.299 127.762 256.01C127.762 326.722 185.289 384.26 256.001 384.26C326.701 384.26 384.239 326.734 384.239 256.01C384.239 185.287 326.701 127.761 256.001 127.761Z" fill="black"/>
<path d="M256 90.0648C242.179 90.0648 230.978 78.8634 230.978 65.0544V25.0218C230.978 11.2014 242.179 0 256 0C269.82 0 281.022 11.2014 281.022 25.0218V65.0544C281.022 78.8634 269.809 90.0648 256 90.0648Z" fill="black"/>
<path d="M256 421.925C242.179 421.925 230.978 433.126 230.978 446.947V486.968C230.978 500.8 242.179 512.001 256 512.001C269.82 512.001 281.022 500.8 281.022 486.968V446.947C281.022 433.126 269.809 421.925 256 421.925Z" fill="black"/>
<path d="M373.321 138.668C363.56 128.895 363.56 113.057 373.321 103.284L401.631 74.9743C411.392 65.2127 427.242 65.2127 437.015 74.9743C446.788 84.7472 446.788 100.597 437.015 110.359L408.705 138.668C398.944 148.441 383.105 148.441 373.321 138.668Z" fill="black"/>
<path d="M138.669 373.343C128.896 363.559 113.058 363.559 103.285 373.343L74.9753 401.641C65.2138 411.403 65.2024 427.264 74.9753 437.025C84.7482 446.787 100.598 446.787 110.36 437.025L138.669 408.704C148.442 398.943 148.442 383.093 138.669 373.343Z" fill="black"/>
<path d="M421.925 256C421.925 242.18 433.126 230.978 446.947 230.978H486.979C500.8 230.978 512.001 242.18 512.001 256C512.001 269.82 500.8 281.01 486.979 281.01H446.947C433.126 281.01 421.925 269.82 421.925 256Z" fill="black"/>
<path d="M90.0648 256C90.0648 242.18 78.8634 230.978 65.043 230.978H25.0218C11.2014 230.978 0 242.18 0 256C0 269.82 11.2014 281.01 25.0218 281.01H65.0544C78.8634 281.01 90.0648 269.82 90.0648 256Z" fill="black"/>
<path d="M373.32 373.342C383.093 363.58 398.943 363.58 408.705 373.342L437.014 401.651C446.787 411.401 446.787 427.263 437.014 437.024C427.241 446.786 411.403 446.786 401.63 437.024L373.32 408.714C363.547 398.942 363.547 383.103 373.32 373.342Z" fill="black"/>
<path d="M138.667 138.668C148.44 128.896 148.44 113.057 138.667 103.284L110.358 74.9859C100.585 65.213 84.7464 65.213 74.9735 74.9859C65.2006 84.7475 65.2006 100.597 74.9735 110.359L103.283 138.668C113.056 148.453 128.894 148.453 138.667 138.668Z" fill="black"/>
</g>
<defs>
<clipPath id="clip0">
<rect width="512" height="512" fill="white"/>
</clipPath>
</defs>
</svg>
