<svg width="512" height="512" viewBox="0 0 512 512" fill="none" xmlns="http://www.w3.org/2000/svg">
<path d="M327.115 301.342V71.102C327.115 31.896 295.211 0 255.997 0C216.789 0 184.891 31.896 184.891 71.102V301.34C155.762 323.53 138.606 357.802 138.606 394.607C138.606 459.339 191.266 512 255.997 512C320.732 512 373.396 459.339 373.396 394.607C373.396 357.806 356.241 323.534 327.115 301.342ZM255.997 481.303C208.194 481.303 169.303 442.412 169.303 394.607C169.303 365.355 184.013 338.254 208.652 322.112C212.98 319.275 215.59 314.448 215.59 309.274V71.102C215.59 48.8222 233.717 30.6968 255.999 30.6968C278.289 30.6968 296.421 48.8222 296.421 71.102V309.274C296.421 314.45 299.028 319.275 303.358 322.112C327.993 338.256 342.703 365.357 342.703 394.607C342.699 442.412 303.804 481.303 255.997 481.303Z" fill="black"/>
<path d="M271.348 345.936V143.095C271.348 134.619 264.478 127.747 255.999 127.747C247.521 127.747 240.651 134.619 240.651 143.095V345.936C219.974 352.45 204.981 371.766 204.981 394.606C204.981 422.78 227.82 445.627 255.999 445.627C284.185 445.627 307.022 422.78 307.022 394.606C307.02 371.764 292.027 352.445 271.348 345.936Z" fill="black"/>
</svg>
