<svg width="512" height="512" viewBox="0 0 512 512" fill="none" xmlns="http://www.w3.org/2000/svg">
<path d="M256 0C181.561 0 121 60.561 121 135C121 209.439 181.561 270 256 270C330.439 270 391 209.439 391 135C391 60.561 330.439 0 256 0ZM256 240C198.103 240 151 192.897 151 135C151 77.103 198.103 30 256 30C313.897 30 361 77.103 361 135C361 192.897 313.897 240 256 240Z" fill="black"/>
<path d="M423.966 358.195C387.006 320.667 338.009 300 286 300H226C173.992 300 124.994 320.667 88.034 358.195C51.255 395.539 31 444.833 31 497C31 505.284 37.716 512 46 512H466C474.284 512 481 505.284 481 497C481 444.833 460.745 395.539 423.966 358.195ZM61.66 482C69.175 396.914 140.011 330 226 330H286C371.989 330 442.825 396.914 450.34 482H61.66Z" fill="black"/>
</svg>
