<svg width="512" height="512" viewBox="0 0 512 512" fill="none" xmlns="http://www.w3.org/2000/svg">
<path d="M218.186 48.67L5.85574 416.41C2.02031 423.051 0.000709858 430.584 1.87094e-07 438.253C-0.000709483 445.922 2.01749 453.456 5.8517 460.098C9.6859 466.739 15.201 472.254 21.8425 476.089C28.484 479.923 36.0179 481.941 43.6868 481.941H468.313C475.982 481.941 483.516 479.923 490.157 476.089C496.799 472.254 502.314 466.739 506.148 460.098C509.983 453.456 512.001 445.922 512 438.253C511.999 430.584 509.98 423.051 506.144 416.41L293.837 48.67C290.003 42.0304 284.489 36.5168 277.85 32.6835C271.21 28.8501 263.678 26.832 256.011 26.832C248.345 26.832 240.813 28.8501 234.173 32.6835C227.533 36.5168 222.02 42.0304 218.186 48.67V48.67Z" fill="#EE404C"/>
<path d="M258.776 162.089H253.238C239.601 162.089 228.547 173.143 228.547 186.78V304.797C228.547 318.434 239.601 329.488 253.238 329.488H258.776C272.413 329.488 283.467 318.434 283.467 304.797V186.78C283.467 173.143 272.413 162.089 258.776 162.089Z" fill="#FFF7ED"/>
<path d="M256.007 423.088C271.173 423.088 283.467 410.793 283.467 395.628C283.467 380.462 271.173 368.167 256.007 368.167C240.841 368.167 228.547 380.462 228.547 395.628C228.547 410.793 240.841 423.088 256.007 423.088Z" fill="#FFF7ED"/>
</svg>
