<svg width="512" height="512" viewBox="0 0 512 512" fill="none" xmlns="http://www.w3.org/2000/svg">
<path d="M512 177.333C512 231.738 467.738 276 413.333 276H100C88.954 276 80 267.046 80 256C80 244.954 88.954 236 100 236H413.333C445.682 236 472 209.682 472 177.333C472 144.984 445.682 118.666 413.333 118.666C380.984 118.666 354.666 144.984 354.666 177.333C354.666 188.379 345.712 197.333 334.666 197.333C323.62 197.333 314.666 188.379 314.666 177.333C314.666 122.928 358.928 78.666 413.333 78.666C467.738 78.667 512 122.928 512 177.333ZM20 197.333H190C244.405 197.333 288.667 153.071 288.667 98.666C288.667 44.262 244.405 0 190 0C135.595 0 91.333 44.262 91.333 98.667C91.333 109.713 100.287 118.667 111.333 118.667C122.379 118.667 131.333 109.713 131.333 98.667C131.333 66.318 157.651 40 190 40C222.349 40 248.667 66.318 248.667 98.667C248.667 131.016 222.349 157.334 190 157.334H20C8.954 157.334 0 166.288 0 177.334C0 188.38 8.954 197.333 20 197.333V197.333ZM334.667 314.667H20C8.954 314.667 0 323.621 0 334.667C0 345.713 8.954 354.667 20 354.667H334.667C367.016 354.667 393.334 380.985 393.334 413.334C393.334 445.683 367.016 472.001 334.667 472.001C302.318 472 276 445.682 276 413.333C276 402.287 267.046 393.333 256 393.333C244.954 393.333 236 402.287 236 413.333C236 467.738 280.262 512 334.667 512C389.072 512 433.334 467.738 433.334 413.333C433.333 358.928 389.072 314.667 334.667 314.667V314.667Z" fill="black"/>
</svg>
