<svg width="512" height="512" viewBox="0 0 512 512" fill="none" xmlns="http://www.w3.org/2000/svg">
<g clip-path="url(#clip0_44:1497)">
<path d="M379.076 174.767H361.851C347.203 155.267 324.473 142.184 298.635 140.493C279.315 99.6433 237.727 71.3833 189.539 71.3833C141.351 71.3833 99.763 99.6423 80.443 140.493C35.524 143.433 0 180.798 0 226.461C0 274.042 38.572 312.615 86.154 312.615H379.077C417.143 312.615 448.001 281.757 448.001 243.691C448 205.625 417.142 174.767 379.076 174.767V174.767Z" fill="#C4E2FF"/>
<path d="M379.075 312.614C402.893 312.614 423.888 300.532 436.268 282.163H435.477C419.675 264.99 398.749 253.492 375.859 249.384C364.668 230.017 349.017 213.543 330.093 201.315C307.279 186.573 280.806 178.781 253.537 178.781C226.268 178.781 199.795 186.573 176.981 201.315C158.057 213.543 142.407 230.017 131.215 249.383C97.5874 255.422 69.5644 277.256 54.7544 306.687C64.4864 310.499 75.0694 312.615 86.1534 312.615H379.075V312.614Z" fill="#B3DAFE"/>
<path d="M30.906 226.469C30.906 180.807 66.43 143.442 111.348 140.502C128.568 104.092 163.484 77.6826 204.991 72.3726C199.929 71.7246 194.776 71.3916 189.538 71.3916C141.349 71.3916 99.762 99.6506 80.442 140.502C35.524 143.441 0 180.806 0 226.469C0 274.05 38.572 312.623 86.154 312.623H117.06C69.478 312.622 30.906 274.05 30.906 226.469V226.469Z" fill="#B3DAFE"/>
<path d="M443.076 302.767H425.851C411.203 283.267 388.473 270.184 362.635 268.493C343.315 227.643 301.727 199.383 253.539 199.383C205.351 199.383 163.763 227.642 144.443 268.493C99.524 271.433 64 308.798 64 354.461C64 402.042 102.572 440.615 150.154 440.615H443.077C481.143 440.615 512.001 409.757 512.001 371.691C512 333.625 481.142 302.767 443.076 302.767V302.767Z" fill="#EAF6FF"/>
<path d="M94.906 354.462C94.906 308.8 130.43 271.435 175.348 268.495C192.568 232.085 227.49 205.677 268.997 200.367C263.935 199.719 258.776 199.385 253.538 199.385C205.349 199.385 163.762 227.646 144.442 268.496C99.524 271.434 64 308.799 64 354.462C64 402.043 102.572 440.616 150.154 440.616H181.06C133.478 440.615 94.906 402.043 94.906 354.462V354.462Z" fill="#D8ECFE"/>
<path d="M144.34 167.514C145.863 169.16 147.936 169.994 150.014 169.994C151.89 169.994 153.773 169.314 155.259 167.94C158.392 165.042 158.582 160.154 155.685 157.021C138.725 138.687 114.787 127.402 89.0128 125.344C85.8198 130.15 82.9558 135.194 80.4668 140.451C105.154 140.456 128.435 150.319 144.34 167.514V167.514Z" fill="#B3DAFE"/>
<path d="M228.583 347.136C228.583 351.403 232.042 354.862 236.309 354.862C240.576 354.862 244.035 351.403 244.035 347.136C244.035 321.913 233.698 298.311 214.929 280.678C198.176 264.939 176.326 255.562 152.71 253.779C149.625 258.466 146.858 263.381 144.441 268.494C143.816 268.535 143.2 268.607 142.579 268.661C143.176 268.809 143.797 268.896 144.441 268.896C191.624 268.896 228.583 303.263 228.583 347.136V347.136Z" fill="#D8ECFE"/>
<path d="M381.881 380.322C381.881 376.055 378.422 372.596 374.155 372.596C369.888 372.596 366.429 376.055 366.429 380.322C366.429 404.775 377.952 426.572 395.838 440.617H432.679C403.874 435.662 381.881 410.52 381.881 380.322Z" fill="#D8ECFE"/>
<path d="M299.582 280.134C296.668 283.252 296.833 288.141 299.951 291.055C301.441 292.447 303.335 293.137 305.225 293.137C307.29 293.137 309.351 292.314 310.872 290.686C324.224 276.398 342.342 268.53 361.888 268.53C362.14 268.53 362.388 268.516 362.633 268.492C360.159 263.261 357.314 258.239 354.142 253.454C333.435 255.362 313.879 264.836 299.582 280.134V280.134Z" fill="#D8ECFE"/>
</g>
<defs>
<clipPath id="clip0_44:1497">
<rect width="512" height="512" fill="white"/>
</clipPath>
</defs>
</svg>
