<svg width="512" height="512" viewBox="0 0 512 512" fill="none" xmlns="http://www.w3.org/2000/svg">
<g clip-path="url(#clip0_44:1585)">
<path d="M346.961 333.619C399.162 333.619 441.48 291.302 441.48 239.1C441.48 186.899 399.162 144.581 346.961 144.581C294.759 144.581 252.442 186.899 252.442 239.1C252.442 291.302 294.759 333.619 346.961 333.619Z" fill="#FED402"/>
<path d="M346.961 333.618C385.211 333.618 418.152 310.896 433.028 278.215C422.806 274.344 411.734 272.218 400.172 272.218H391.504C374.837 253.893 352.607 241.684 328.286 237.472C316.565 216.971 300.08 199.541 280.107 186.634C277.41 184.891 274.659 183.255 271.869 181.7C259.686 197.614 252.442 217.509 252.442 239.099C252.442 291.3 294.759 333.618 346.961 333.618Z" fill="#FAC600"/>
<path d="M303.154 239.1C303.154 195.683 332.442 159.106 372.329 148.024C364.259 145.782 355.745 144.581 346.961 144.581C294.76 144.581 252.442 186.898 252.442 239.1C252.442 291.301 294.759 333.619 346.961 333.619C355.745 333.619 364.247 332.416 372.317 330.174C332.43 319.092 303.154 282.517 303.154 239.1Z" fill="#FAC600"/>
<path d="M346.844 120.694C346.839 120.694 346.835 120.694 346.83 120.694C342.628 120.686 339.229 117.274 339.237 113.073L339.296 81.5681C339.304 77.3711 342.708 73.9751 346.903 73.9751H346.917C351.119 73.9831 354.518 77.3951 354.51 81.5961L354.451 113.101C354.443 117.298 351.038 120.694 346.844 120.694Z" fill="#FED402"/>
<path d="M409.847 137.563C408.551 137.563 407.239 137.232 406.038 136.536C402.404 134.428 401.166 129.774 403.274 126.139L419.078 98.8853C421.187 95.2523 425.841 94.0143 429.475 96.1213C433.109 98.2293 434.347 102.883 432.239 106.518L416.435 133.772C415.024 136.204 412.471 137.563 409.847 137.563V137.563Z" fill="#FED402"/>
<path d="M456.002 183.678C453.368 183.678 450.807 182.309 449.401 179.861C447.307 176.219 448.562 171.57 452.205 169.476L479.518 153.775C483.159 151.679 487.81 152.936 489.903 156.579C491.997 160.221 490.742 164.87 487.099 166.964L459.786 182.665C458.591 183.352 457.288 183.678 456.002 183.678Z" fill="#FED402"/>
<path d="M504.395 246.744C504.39 246.744 504.386 246.744 504.381 246.744L472.877 246.685C468.675 246.677 465.276 243.265 465.284 239.064C465.292 234.867 468.696 231.471 472.891 231.471H472.905L504.409 231.53C508.611 231.538 512.01 234.95 512.002 239.151C511.994 243.348 508.59 246.744 504.395 246.744Z" fill="#FED402"/>
<path d="M283.845 137.592C281.211 137.592 278.65 136.223 277.244 133.775L261.543 106.462C259.449 102.82 260.704 98.1714 264.347 96.0774C267.988 93.9814 272.639 95.2374 274.732 98.8814L290.433 126.194C292.527 129.836 291.272 134.485 287.629 136.579C286.434 137.266 285.131 137.592 283.845 137.592Z" fill="#FED402"/>
<path d="M400.172 292.502H381.988C366.525 271.917 342.53 258.106 315.253 256.321C294.858 213.197 250.956 183.365 200.086 183.365C149.216 183.365 105.314 213.198 84.919 256.321C37.5 259.425 0 298.869 0 347.072C0 397.301 40.719 438.02 90.948 438.02H400.172C440.356 438.02 472.931 405.445 472.931 365.261C472.931 325.078 440.356 292.502 400.172 292.502V292.502Z" fill="#EAF6FF"/>
<path d="M30.427 347.072C30.427 298.869 67.927 259.424 115.346 256.321C133.676 217.563 171 189.556 215.3 184.28C210.31 183.686 205.236 183.365 200.086 183.365C149.216 183.365 105.314 213.197 84.919 256.321C37.5 259.425 0 298.869 0 347.072C0 397.301 40.719 438.02 90.948 438.02H121.375C71.146 438.021 30.427 397.302 30.427 347.072V347.072Z" fill="#D8ECFE"/>
<path d="M174.29 339.407C174.29 343.609 177.696 347.014 181.897 347.014C186.098 347.014 189.504 343.609 189.504 339.407C189.504 312.934 178.653 288.16 158.952 269.65C141.281 253.05 118.215 243.166 93.2858 241.356C90.1888 246.116 87.3948 251.091 84.9458 256.263C135.047 256.277 174.29 292.793 174.29 339.407Z" fill="#D8ECFE"/>
<path d="M335.018 372.803C335.018 368.601 331.613 365.196 327.411 365.196C323.209 365.196 319.804 368.601 319.804 372.803C319.804 399.632 333.032 423.416 353.295 438.021H400.169C400.443 438.021 400.713 438.003 400.986 438C400.718 437.971 400.446 437.955 400.169 437.955C364.244 437.955 335.018 408.728 335.018 372.803V372.803Z" fill="#D8ECFE"/>
<path d="M249.094 269.511C246.226 272.58 246.389 277.394 249.458 280.263C250.924 281.634 252.789 282.312 254.65 282.312C256.683 282.312 258.712 281.502 260.209 279.899C274.409 264.703 293.678 256.335 314.466 256.335C314.728 256.335 314.987 256.322 315.242 256.296C312.805 251.145 310.023 246.191 306.944 241.448C284.992 243.319 264.234 253.31 249.094 269.511V269.511Z" fill="#D8ECFE"/>
</g>
<defs>
<clipPath id="clip0_44:1585">
<rect width="512" height="512" fill="white"/>
</clipPath>
</defs>
</svg>
