<svg width="512" height="512" viewBox="0 0 512 512" fill="none" xmlns="http://www.w3.org/2000/svg">
<g clip-path="url(#clip0_44:1526)">
<path d="M465.993 340.284C455.736 334.362 443.568 334.772 433.994 340.286L388.346 313.931L413.131 299.621C420.784 295.202 423.406 285.416 418.988 277.763C414.569 270.11 404.783 267.488 397.13 271.906L356.343 295.454L320.254 274.618V237.382L356.343 216.546L397.13 240.094C404.783 244.513 414.57 241.89 418.988 234.237C423.407 226.584 420.784 216.798 413.131 212.379L388.346 198.069L433.994 171.714C443.568 177.229 455.736 177.638 465.993 171.716C481.299 162.879 486.544 143.306 477.707 128C468.87 112.693 449.297 107.449 433.991 116.286C423.735 122.208 418.005 132.95 417.994 143.999L372.346 170.354V141.735C372.346 132.898 365.182 125.734 356.345 125.734C347.508 125.734 340.344 132.898 340.344 141.735V188.831L304.236 209.678L272.007 191.071V149.418L312.793 125.87C320.446 121.451 323.069 111.665 318.65 104.012C314.231 96.359 304.445 93.737 296.792 98.155L272.007 112.465V59.713C281.57 54.179 288.008 43.846 288.008 32.002C288.007 14.328 273.679 0 256.004 0C238.329 0 224.001 14.328 224.001 32.003C224.001 43.846 230.439 54.18 240.002 59.714V112.465L215.217 98.155C207.564 93.736 197.777 96.359 193.359 104.012C188.94 111.665 191.563 121.452 199.216 125.87L240.003 149.418V191.071L207.774 209.678L171.702 188.852V141.756C171.702 132.919 164.538 125.755 155.701 125.755C146.864 125.755 139.7 132.919 139.7 141.756V170.375L94.0166 144C94.0036 132.95 88.2746 122.208 78.0176 116.286C62.7106 107.449 43.1386 112.693 34.3016 128C25.4646 143.307 30.7086 162.879 46.0156 171.716C56.2726 177.638 68.4406 177.228 78.0146 171.714L123.699 198.089L98.9136 212.399C91.2606 216.818 88.6376 226.604 93.0566 234.257C97.4756 241.91 107.262 244.532 114.915 240.114L155.702 216.566L191.756 237.382V274.618L155.702 295.434L114.915 271.886C107.262 267.467 97.4746 270.09 93.0566 277.743C88.6386 285.396 91.2606 295.182 98.9136 299.601L123.699 313.911L78.0136 340.286C68.4396 334.771 56.2716 334.362 46.0146 340.284C30.7086 349.121 25.4636 368.693 34.3016 384C43.1396 399.307 62.7116 404.551 78.0176 395.714C88.2746 389.792 94.0036 379.05 94.0146 368.001L139.698 341.626V370.246C139.698 379.083 146.862 386.247 155.699 386.247C164.536 386.247 171.7 379.083 171.7 370.246V323.15L207.736 302.345L240.001 320.972V362.625L199.214 386.173C191.561 390.592 188.939 400.378 193.357 408.031C197.776 415.684 207.562 418.306 215.215 413.888L240 399.578V452.288C230.437 457.822 223.999 468.155 223.999 479.999C224.001 497.672 238.329 512 256.004 512C273.679 512 288.007 497.672 288.007 479.997C288.007 468.154 281.569 457.82 272.006 452.286V399.576L296.791 413.886C304.444 418.305 314.23 415.682 318.649 408.029C323.067 400.376 320.445 390.589 312.792 386.171L272.006 362.623V320.97L304.271 302.343L340.343 323.169V370.265C340.343 379.102 347.507 386.266 356.344 386.266C365.181 386.266 372.345 379.102 372.345 370.265V341.645L417.993 368C418.004 379.049 423.734 389.791 433.99 395.713C449.297 404.55 468.869 399.306 477.706 383.999C486.544 368.693 481.299 349.121 465.993 340.284V340.284ZM446.128 137.31C449.824 135.176 454.55 136.442 456.683 140.138C458.817 143.834 457.551 148.56 453.855 150.693C450.159 152.827 445.433 151.56 443.3 147.865C441.166 144.169 442.432 139.443 446.128 137.31ZM68.7076 147.865C66.5736 151.561 61.8476 152.827 58.1526 150.693C54.4566 148.559 53.1906 143.833 55.3246 140.138C57.4586 136.442 62.1846 135.176 65.8796 137.31C69.5756 139.443 70.8416 144.169 68.7076 147.865ZM65.8796 374.691C62.1836 376.825 57.4576 375.558 55.3246 371.863C53.1906 368.167 54.4566 363.441 58.1526 361.308C61.8486 359.174 66.5746 360.44 68.7076 364.136C70.8416 367.831 69.5756 372.557 65.8796 374.691ZM248.277 32.002C248.277 27.735 251.737 24.275 256.004 24.275C260.272 24.275 263.731 27.734 263.731 32.002C263.731 36.269 260.272 39.729 256.004 39.729C251.737 39.73 248.277 36.27 248.277 32.002V32.002ZM263.731 479.997C263.731 484.264 260.272 487.724 256.004 487.724C251.737 487.724 248.277 484.264 248.277 479.997C248.277 475.73 251.737 472.27 256.004 472.27C260.272 472.27 263.731 475.73 263.731 479.997ZM288.007 274.497L256.004 292.973L224.001 274.497V237.545L256.004 219.068L288.007 237.544V274.497ZM456.683 371.862C454.549 375.558 449.824 376.824 446.128 374.69C442.432 372.556 441.166 367.83 443.3 364.135C445.434 360.439 450.159 359.173 453.855 361.307C457.551 363.441 458.817 368.166 456.683 371.862Z" fill="#EAF6FF"/>
<path d="M312.24 413.887L287.455 399.577V408.499L296.786 413.886C301.819 416.792 307.775 416.652 312.519 414.04C312.43 413.992 312.328 413.938 312.24 413.887Z" fill="#DDF6F9"/>
<path d="M199.212 125.87L239.999 149.418V191.071L215.497 205.217L223.224 209.678L255.453 191.071V149.418L214.666 125.87C207.013 121.451 204.391 111.665 208.809 104.012C210.322 101.391 212.484 99.3696 214.955 98.0096C207.342 93.8026 197.722 96.4476 193.355 104.012C188.937 111.665 191.559 121.452 199.212 125.87V125.87Z" fill="#D8ECFE"/>
<path d="M387.796 170.353L433.444 143.998C433.455 132.949 439.185 122.207 449.441 116.285C452.092 114.755 454.882 113.65 457.711 112.943C449.952 111.015 441.457 111.972 433.987 116.285C423.731 122.207 418.001 132.949 417.99 143.998L387.796 161.43V170.353Z" fill="#D8ECFE"/>
<path d="M239.998 59.713V103.541L255.452 112.463V59.713C245.889 54.179 239.451 43.846 239.451 32.002C239.451 16.992 249.798 4.399 263.738 0.941C261.262 0.328 258.664 0 255.999 0C238.324 0 223.996 14.328 223.996 32.003C223.996 43.846 230.435 54.179 239.998 59.713V59.713Z" fill="#D8ECFE"/>
<path d="M287.455 103.543V112.465L312.24 98.1545C312.329 98.1035 312.438 98.0535 312.527 98.0045C307.783 95.3925 301.819 95.2485 296.786 98.1545L287.455 103.543Z" fill="#D8ECFE"/>
<path d="M319.685 209.677L355.793 188.83V141.734C355.793 135.7 359.141 130.448 364.073 127.722C361.782 126.455 359.144 125.733 356.34 125.733C347.503 125.733 340.339 132.897 340.339 141.734V188.83L311.958 205.215L319.685 209.677Z" fill="#D8ECFE"/>
<path d="M397.127 240.094C402.16 243 408.12 242.858 412.865 240.246C412.776 240.197 412.67 240.145 412.581 240.094L371.794 216.546L364.067 221.007L397.127 240.094Z" fill="#D8ECFE"/>
<path d="M412.863 271.755C408.119 269.143 402.16 269.002 397.127 271.908L364.067 290.995L371.794 295.456L412.581 271.908C412.67 271.856 412.774 271.804 412.863 271.755V271.755Z" fill="#D8ECFE"/>
<path d="M263.726 223.53L288.002 237.545V274.498L263.726 288.513L271.453 292.974L303.456 274.498V237.545L271.453 219.069L263.726 223.53Z" fill="#D8ECFE"/>
<path d="M208.809 408.03C204.39 400.377 207.013 390.59 214.666 386.172L255.453 362.624V320.971L223.188 302.344L215.461 306.805L239.999 320.971V362.624L199.212 386.172C191.559 390.591 188.937 400.377 193.355 408.03C197.722 415.595 207.338 418.242 214.951 414.035C212.481 412.675 210.322 410.651 208.809 408.03Z" fill="#D8ECFE"/>
<path d="M155.15 370.245V341.625L139.696 350.547V370.244C139.696 379.081 146.86 386.245 155.697 386.245C158.5 386.245 161.14 385.521 163.431 384.255C158.5 381.53 155.15 376.279 155.15 370.245Z" fill="#D8ECFE"/>
<path d="M49.7516 384C40.9146 368.693 46.1586 349.121 61.4656 340.284C64.1066 338.759 66.8736 337.645 69.6916 336.939C61.9416 335.017 53.4736 335.976 46.0116 340.284C30.7046 349.121 25.4596 368.693 34.2976 384C41.6046 396.656 56.2656 402.429 69.7706 399.055C61.6316 397.033 54.2756 391.836 49.7516 384V384Z" fill="#D8ECFE"/>
<path d="M239.45 479.998C239.45 468.155 245.888 457.821 255.451 452.287V399.577L239.997 408.499V452.286C230.434 457.82 223.996 468.153 223.996 479.997C223.995 497.673 238.323 512.001 255.998 512.001C258.663 512.001 261.255 511.675 263.73 511.061C249.789 507.603 239.45 495.008 239.45 479.998V479.998Z" fill="#D8ECFE"/>
<path d="M449.441 395.714C439.185 389.792 433.455 379.05 433.444 368.001L387.796 341.646V350.568L417.99 368C418.001 379.049 423.731 389.791 433.987 395.713C441.457 400.026 449.951 400.983 457.71 399.055C454.881 398.349 452.092 397.244 449.441 395.714Z" fill="#D8ECFE"/>
<path d="M108.501 277.741C110.014 275.12 112.178 273.099 114.649 271.739C107.036 267.532 97.4153 270.176 93.0473 277.741C88.6293 285.394 91.2513 295.18 98.9043 299.599L123.689 313.909L84.1753 336.722C87.4243 337.422 90.5613 338.615 93.4603 340.284L139.144 313.909L114.359 299.599C106.705 295.181 104.083 285.395 108.501 277.741V277.741Z" fill="#D8ECFE"/>
<path d="M355.791 370.266V323.17L319.719 302.344L311.992 306.805L340.337 323.17V370.266C340.337 379.103 347.501 386.267 356.338 386.267C359.141 386.267 361.783 385.542 364.075 384.276C359.143 381.549 355.791 376.299 355.791 370.266V370.266Z" fill="#D8ECFE"/>
<path d="M46.011 171.716C53.473 176.024 61.952 176.98 69.703 175.058C66.885 174.352 64.107 173.241 61.465 171.716C46.158 162.879 40.914 143.306 49.751 128C54.275 120.164 61.63 114.967 69.769 112.944C56.264 109.57 41.604 115.344 34.297 128C25.46 143.307 30.705 162.879 46.011 171.716Z" fill="#D8ECFE"/>
<path d="M93.0522 234.256C97.4202 241.821 107.038 244.466 114.651 240.259C112.18 238.899 110.019 236.876 108.506 234.256C104.087 226.603 106.71 216.817 114.363 212.398L139.148 198.088L93.4642 171.713C90.5662 173.382 87.4282 174.575 84.1792 175.275L123.693 198.088L98.9082 212.398C91.2562 216.817 88.6342 226.603 93.0522 234.256V234.256Z" fill="#D8ECFE"/>
<path d="M163.425 290.974L171.152 295.435L207.206 274.619V237.383L171.152 216.567L163.425 221.028L191.752 237.383V274.619L163.425 290.974Z" fill="#D8ECFE"/>
<path d="M155.149 170.375V141.756C155.149 135.722 158.491 130.466 163.423 127.74C161.132 126.473 158.5 125.754 155.697 125.754C146.86 125.754 139.696 132.918 139.696 141.755V161.452L155.149 170.375Z" fill="#D8ECFE"/>
</g>
<defs>
<clipPath id="clip0_44:1526">
<rect width="512" height="512" fill="white"/>
</clipPath>
</defs>
</svg>
