<svg width="512" height="512" viewBox="0 0 512 512" fill="none" xmlns="http://www.w3.org/2000/svg">
<path d="M176.388 79.8374C185.224 79.8374 192.388 72.674 192.388 63.8374C192.388 55.0008 185.224 47.8374 176.388 47.8374C167.551 47.8374 160.388 55.0008 160.388 63.8374C160.388 72.674 167.551 79.8374 176.388 79.8374Z" fill="#FED402"/>
<path d="M335.604 464.229C344.441 464.229 351.604 457.066 351.604 448.229C351.604 439.392 344.441 432.229 335.604 432.229C326.768 432.229 319.604 439.392 319.604 448.229C319.604 457.066 326.768 464.229 335.604 464.229Z" fill="#FED402"/>
<path d="M63.8042 192.423C72.6408 192.423 79.8042 185.259 79.8042 176.423C79.8042 167.586 72.6408 160.423 63.8042 160.423C54.9676 160.423 47.8042 167.586 47.8042 176.423C47.8042 185.259 54.9676 192.423 63.8042 192.423Z" fill="#FED402"/>
<path d="M448.196 351.644C457.032 351.644 464.196 344.48 464.196 335.644C464.196 326.807 457.032 319.644 448.196 319.644C439.359 319.644 432.196 326.807 432.196 335.644C432.196 344.48 439.359 351.644 448.196 351.644Z" fill="#FED402"/>
<path d="M63.8042 351.644C72.6408 351.644 79.8042 344.48 79.8042 335.644C79.8042 326.807 72.6408 319.644 63.8042 319.644C54.9676 319.644 47.8042 326.807 47.8042 335.644C47.8042 344.48 54.9676 351.644 63.8042 351.644Z" fill="#FED402"/>
<path d="M448.196 192.423C457.032 192.423 464.196 185.259 464.196 176.423C464.196 167.586 457.032 160.423 448.196 160.423C439.359 160.423 432.196 167.586 432.196 176.423C432.196 185.259 439.359 192.423 448.196 192.423Z" fill="#FED402"/>
<path d="M176.388 464.229C185.224 464.229 192.388 457.066 192.388 448.229C192.388 439.392 185.224 432.229 176.388 432.229C167.551 432.229 160.388 439.392 160.388 448.229C160.388 457.066 167.551 464.229 176.388 464.229Z" fill="#FED402"/>
<path d="M335.604 79.8374C344.441 79.8374 351.604 72.674 351.604 63.8374C351.604 55.0008 344.441 47.8374 335.604 47.8374C326.768 47.8374 319.604 55.0008 319.604 63.8374C319.604 72.674 326.768 79.8374 335.604 79.8374Z" fill="#FED402"/>
<path d="M256.001 416.002C344.367 416.002 416.002 344.367 416.002 256.001C416.002 167.635 344.367 96 256.001 96C167.635 96 96 167.635 96 256.001C96 344.367 167.635 416.002 256.001 416.002Z" fill="#FED402"/>
<path d="M147.51 256.001C147.51 176.404 205.643 110.382 281.762 98.063C273.377 96.706 264.77 96 256.001 96C167.635 96 96 167.635 96 256.001C96 344.367 167.635 416.001 256.001 416.001C264.77 416.001 273.371 415.296 281.756 413.939C205.637 401.62 147.51 335.598 147.51 256.001Z" fill="#FAC600"/>
<path d="M255.531 0H256.469C265.047 0 272 6.954 272 15.531V48.469C272 57.047 265.047 64 256.469 64H255.531C246.953 64 240 57.047 240 48.469V15.531C240 6.954 246.953 0 255.531 0V0Z" fill="#FED402"/>
<path d="M255.531 448H256.469C265.047 448 272 454.954 272 463.531V496.469C272 505.047 265.046 512 256.469 512H255.531C246.953 512 240 505.046 240 496.469V463.531C240 454.953 246.953 448 255.531 448Z" fill="#FED402"/>
<path d="M74.6488 75.3116L75.3118 74.6486C81.3768 68.5836 91.2108 68.5836 97.2758 74.6486L120.567 97.9396C126.632 104.005 126.632 113.839 120.567 119.904L119.904 120.567C113.839 126.632 104.005 126.632 97.9398 120.567L74.6488 97.2766C68.5838 91.2106 68.5838 81.3776 74.6488 75.3116V75.3116Z" fill="#FED402"/>
<path d="M391.432 392.097L392.095 391.434C398.16 385.369 407.994 385.369 414.059 391.434L437.35 414.725C443.415 420.79 443.415 430.624 437.35 436.689L436.687 437.352C430.622 443.417 420.788 443.417 414.723 437.352L391.432 414.061C385.367 407.996 385.367 398.162 391.432 392.097Z" fill="#FED402"/>
<path d="M0 256.469V255.531C0 246.953 6.954 240 15.531 240H48.469C57.047 240 64 246.953 64 255.531V256.469C64 265.047 57.047 272 48.469 272H15.531C6.954 272 0 265.047 0 256.469H0Z" fill="#FED402"/>
<path d="M448 256.469V255.531C448 246.953 454.954 240 463.531 240H496.469C505.047 240 512 246.954 512 255.531V256.469C512 265.047 505.046 272 496.469 272H463.531C454.953 272 448 265.047 448 256.469Z" fill="#FED402"/>
<path d="M75.3118 437.352L74.6488 436.689C68.5838 430.624 68.5838 420.79 74.6488 414.725L97.9398 391.434C104.005 385.369 113.839 385.369 119.904 391.434L120.567 392.097C126.632 398.162 126.632 407.996 120.567 414.061L97.2758 437.352C91.2108 443.417 81.3778 443.417 75.3118 437.352Z" fill="#FED402"/>
<path d="M392.095 120.567L391.432 119.904C385.367 113.839 385.367 104.005 391.432 97.9396L414.723 74.6486C420.788 68.5836 430.622 68.5836 436.687 74.6486L437.35 75.3116C443.415 81.3766 443.415 91.2106 437.35 97.2756L414.059 120.567C407.994 126.632 398.16 126.632 392.095 120.567Z" fill="#FED402"/>
</svg>
