<svg width="20" height="20" viewBox="0 0 20 20" fill="none" xmlns="http://www.w3.org/2000/svg">
<path d="M10 4.99066C7.23784 4.99066 4.99072 7.23823 4.99072 10.0004C4.99072 12.7626 7.23784 15.0101 10 15.0101C12.7618 15.0101 15.0093 12.763 15.0093 10.0004C15.0093 7.23778 12.7618 4.99066 10 4.99066Z" fill="#FDC821"/>
<path d="M10 3.51816C9.46014 3.51816 9.02258 3.0806 9.02258 2.54119V0.977414C9.02258 0.437555 9.46014 0 10 0C10.5399 0 10.9774 0.437555 10.9774 0.977414V2.54119C10.9774 3.0806 10.5394 3.51816 10 3.51816Z" fill="#FDC821"/>
<path d="M10 16.4814C9.46014 16.4814 9.02258 16.919 9.02258 17.4589V19.0222C9.02258 19.5625 9.46014 20 10 20C10.5399 20 10.9774 19.5625 10.9774 19.0222V17.4589C10.9774 16.919 10.5394 16.4814 10 16.4814Z" fill="#FDC821"/>
<path d="M14.5829 5.41673C14.2015 5.03497 14.2015 4.41628 14.5829 4.03453L15.6887 2.92868C16.07 2.54737 16.6891 2.54737 17.0709 2.92868C17.4527 3.31044 17.4527 3.92957 17.0709 4.31088L15.9651 5.41673C15.5837 5.79848 14.9651 5.79848 14.5829 5.41673Z" fill="#FDC821"/>
<path d="M5.41677 14.5837C5.03502 14.2015 4.41633 14.2015 4.03457 14.5837L2.92873 15.6891C2.54742 16.0704 2.54697 16.69 2.92873 17.0713C3.31048 17.4526 3.92961 17.4526 4.31092 17.0713L5.41677 15.965C5.79852 15.5837 5.79852 14.9646 5.41677 14.5837Z" fill="#FDC821"/>
<path d="M16.4814 10C16.4814 9.46014 16.919 9.02258 17.4589 9.02258H19.0226C19.5625 9.02258 20 9.46014 20 10C20 10.5399 19.5625 10.977 19.0226 10.977H17.4589C16.919 10.977 16.4814 10.5399 16.4814 10Z" fill="#FDC821"/>
<path d="M3.51816 10C3.51816 9.46014 3.0806 9.02258 2.54074 9.02258H0.977414C0.437555 9.02258 0 9.46014 0 10C0 10.5399 0.437555 10.977 0.977414 10.977H2.54119C3.0806 10.977 3.51816 10.5399 3.51816 10Z" fill="#FDC821"/>
<path d="M14.5828 14.5837C14.9646 14.2023 15.5837 14.2023 15.965 14.5837L17.0709 15.6895C17.4526 16.0704 17.4526 16.6899 17.0709 17.0713C16.6891 17.4526 16.0704 17.4526 15.6887 17.0713L14.5828 15.9654C14.2011 15.5837 14.2011 14.965 14.5828 14.5837Z" fill="#FDC821"/>
<path d="M5.41669 5.41674C5.79845 5.03498 5.79845 4.41629 5.41669 4.03454L4.31085 2.92914C3.92909 2.54738 3.3104 2.54738 2.92865 2.92914C2.5469 3.31045 2.5469 3.92958 2.92865 4.31089L4.0345 5.41674C4.41625 5.79893 5.03494 5.79893 5.41669 5.41674Z" fill="#FDC821"/>
</svg>
