<svg width="512" height="512" viewBox="0 0 512 512" fill="none" xmlns="http://www.w3.org/2000/svg">
<path d="M190.634 276.319C190.634 326.261 154.74 366.748 110.463 366.748C66.1855 366.748 30.2915 326.262 30.2915 276.319C30.2915 222.173 86.3715 145.613 104.725 122.006C107.636 118.262 113.289 118.262 116.2 122.006C134.554 145.613 190.634 222.174 190.634 276.319V276.319Z" fill="#C4E2FF"/>
<path d="M50.2915 276.319C50.2915 225.87 98.9695 155.971 120.463 127.566C118.888 125.485 117.454 123.618 116.201 122.006C113.29 118.262 107.637 118.262 104.726 122.006C86.3715 145.613 30.2915 222.174 30.2915 276.319C30.2915 326.261 66.1855 366.748 110.463 366.748C113.85 366.748 117.187 366.508 120.463 366.049C80.9055 360.497 50.2915 322.442 50.2915 276.319V276.319Z" fill="#B3DAFE"/>
<path d="M307.097 98.9798C307.097 130.975 284.102 156.913 255.736 156.913C227.37 156.913 204.375 130.975 204.375 98.9798C204.375 66.1748 236.507 20.5257 249.942 2.87475C252.859 -0.95825 258.615 -0.95825 261.532 2.87475C274.965 20.5257 307.097 66.1738 307.097 98.9798V98.9798Z" fill="#C4E2FF"/>
<path d="M224.372 98.9798C224.372 69.2338 250.791 28.9287 265.733 8.51075C264.196 6.41075 262.78 4.52075 261.528 2.87475C258.611 -0.95825 252.855 -0.95825 249.938 2.87475C236.504 20.5257 204.371 66.1748 204.371 98.9798C204.371 130.975 227.366 156.913 255.732 156.913C259.155 156.913 262.497 156.527 265.732 155.807C242.156 150.557 224.372 127.114 224.372 98.9798V98.9798Z" fill="#B3DAFE"/>
<path d="M481.711 384.554C481.711 454.94 431.124 511.999 368.722 511.999C306.32 511.999 255.733 454.94 255.733 384.554C255.733 305.739 340.043 193.226 363.006 164.043C365.92 160.339 371.523 160.339 374.437 164.043C397.401 193.225 481.711 305.739 481.711 384.554Z" fill="#C4E2FF"/>
<path d="M275.736 384.554C275.736 310.032 351.102 205.396 378.725 169.548C377.134 167.483 375.691 165.632 374.441 164.043C371.527 160.339 365.924 160.339 363.01 164.043C340.047 193.226 255.737 305.74 255.737 384.554C255.737 454.94 306.324 512 368.726 512C372.097 512 375.43 511.823 378.726 511.498C321.008 505.786 275.736 451.138 275.736 384.554V384.554Z" fill="#B3DAFE"/>
<path d="M368.724 487.264C320.061 487.264 280.471 441.188 280.471 384.553C280.471 380.248 283.961 376.758 288.266 376.758C292.571 376.758 296.061 380.248 296.061 384.553C296.061 432.592 328.658 471.674 368.725 471.674C373.03 471.674 376.52 475.164 376.52 479.469C376.52 483.774 373.029 487.264 368.724 487.264V487.264Z" fill="#EAF6FF"/>
<path d="M110.465 342.014C79.8968 342.014 55.0288 312.544 55.0288 276.32C55.0288 272.015 58.5188 268.525 62.8238 268.525C67.1288 268.525 70.6188 272.015 70.6188 276.32C70.6188 303.948 88.4938 326.424 110.466 326.424C114.771 326.424 118.261 329.914 118.261 334.219C118.261 338.524 114.77 342.014 110.465 342.014V342.014Z" fill="#EAF6FF"/>
<path d="M255.735 132.176C241.053 132.176 229.108 117.283 229.108 98.9784C229.108 94.6734 232.598 91.1833 236.903 91.1833C241.208 91.1833 244.698 94.6734 244.698 98.9784C244.698 109.056 250.525 116.587 255.735 116.587C260.041 116.587 263.531 120.077 263.531 124.382C263.531 128.686 260.041 132.176 255.735 132.176V132.176Z" fill="#EAF6FF"/>
</svg>
