<svg width="512" height="512" viewBox="0 0 512 512" fill="none" xmlns="http://www.w3.org/2000/svg">
<g clip-path="url(#clip0_44:1550)">
<path d="M444.099 156.259H427.13C412.7 137.049 390.308 124.161 364.853 122.495C345.82 82.2516 304.851 54.4126 257.379 54.4126C209.907 54.4126 168.937 82.2516 149.905 122.495C105.654 125.391 70.6587 162.201 70.6587 207.184C70.6587 254.058 108.658 292.057 155.532 292.057H444.1C481.6 292.057 511.999 261.658 511.999 224.158C511.998 186.658 481.599 156.259 444.099 156.259V156.259Z" fill="#EAF6FF"/>
<path d="M101.104 207.184C101.104 162.201 136.1 125.391 180.35 122.495C197.314 86.6256 231.711 60.6096 272.601 55.3786C267.615 54.7406 262.538 54.4126 257.378 54.4126C209.906 54.4126 168.936 82.2516 149.904 122.495C105.653 125.391 70.6582 162.201 70.6582 207.184C70.6582 254.058 108.657 292.057 155.531 292.057H185.977C139.103 292.057 101.104 254.058 101.104 207.184V207.184Z" fill="#D8ECFE"/>
<path d="M232.796 199.638C232.796 203.842 236.204 207.25 240.408 207.25C244.612 207.25 248.02 203.842 248.02 199.638C248.02 174.79 237.837 151.539 219.347 134.168C202.893 118.711 181.451 109.48 158.268 107.683C155.144 112.396 152.343 117.342 149.906 122.494C149.747 122.504 149.592 122.525 149.433 122.536C149.59 122.546 149.746 122.56 149.906 122.56C196.386 122.561 232.796 156.417 232.796 199.638V199.638Z" fill="#D8ECFE"/>
<path d="M383.811 231.918C383.811 227.714 380.403 224.306 376.199 224.306C371.995 224.306 368.587 227.714 368.587 231.918C368.587 256.436 380.34 278.253 398.5 292.056H440.076C408.704 289.977 383.811 263.807 383.811 231.918Z" fill="#D8ECFE"/>
<path d="M302.738 133.977C299.868 137.048 300.03 141.865 303.102 144.735C304.57 146.107 306.435 146.786 308.298 146.786C310.332 146.786 312.362 145.975 313.86 144.372C327.015 130.297 344.863 122.545 364.118 122.545C364.391 122.545 364.66 122.529 364.925 122.501C364.901 122.499 364.877 122.497 364.853 122.495C362.418 117.345 359.618 112.403 356.497 107.692C336.094 109.571 316.825 118.904 302.738 133.977V133.977Z" fill="#D8ECFE"/>
<path d="M375.707 457.587C364.997 457.587 354.87 453.542 347.086 446.13C339.05 438.478 334.474 428.155 334.203 417.062C334.1 412.86 337.423 409.369 341.626 409.267C345.825 409.129 349.319 412.487 349.421 416.69C349.777 431.198 361.862 442.709 376.378 442.357C385.671 442.129 394.319 438.296 400.729 431.564C407.139 424.832 410.544 416.006 410.316 406.713C409.703 381.685 388.889 361.832 363.812 362.434C363.75 362.436 363.688 362.436 363.626 362.436H101.675C97.4705 362.436 94.0625 359.028 94.0625 354.824C94.0625 350.62 97.4705 347.212 101.675 347.212H363.537C379.705 346.851 395.027 352.772 406.732 363.916C418.46 375.083 425.137 390.149 425.534 406.339C426.21 433.915 404.326 456.899 376.75 457.574C376.403 457.583 376.054 457.587 375.707 457.587V457.587Z" fill="#C4E2FF"/>
<path d="M137.745 268.441C137.276 268.441 136.805 268.436 136.335 268.425H7.612C3.408 268.425 0 265.017 0 260.813C0 256.609 3.408 253.201 7.612 253.201H136.425C136.487 253.201 136.549 253.202 136.611 253.203C136.987 253.212 137.366 253.217 137.739 253.217C162.265 253.217 182.51 233.577 183.115 208.924C183.585 189.74 168.36 173.75 149.177 173.28C142.13 173.109 135.474 175.683 130.383 180.53C125.291 185.378 122.393 191.918 122.22 198.946C122.117 203.149 118.616 206.509 114.425 206.369C110.222 206.266 106.899 202.776 107.002 198.574C107.274 187.481 111.849 177.158 119.885 169.506C127.921 161.855 138.435 157.773 149.549 158.062C177.125 158.737 199.009 181.722 198.333 209.297C197.527 242.215 170.491 268.44 137.745 268.441V268.441Z" fill="#C4E2FF"/>
<path d="M278.999 330.408C278.522 330.408 278.049 330.403 277.571 330.392H70.6618C66.4578 330.392 63.0498 326.984 63.0498 322.78C63.0498 318.576 66.4578 315.168 70.6618 315.168H277.661C277.723 315.168 277.785 315.169 277.847 315.17C289.976 315.449 301.487 311.025 310.27 302.661C319.054 294.298 324.054 283.015 324.351 270.891C324.579 261.598 321.174 252.772 314.764 246.04C308.354 239.308 299.706 235.475 290.413 235.247C275.902 234.941 263.813 246.406 263.456 260.914C263.353 265.116 259.909 268.435 255.66 268.336C251.458 268.233 248.135 264.743 248.238 260.54C248.799 237.641 267.853 219.472 290.786 220.029C304.144 220.356 316.575 225.866 325.789 235.543C335.003 245.22 339.898 257.906 339.57 271.265C339.174 287.454 332.496 302.52 320.768 313.687C309.408 324.503 294.626 330.407 278.999 330.408V330.408Z" fill="#C4E2FF"/>
<path d="M70.6609 362.418H39.1369C34.9329 362.418 31.5249 359.01 31.5249 354.806C31.5249 350.602 34.9329 347.194 39.1369 347.194H70.6609C74.8649 347.194 78.2729 350.602 78.2729 354.806C78.2729 359.011 74.8649 362.418 70.6609 362.418Z" fill="#C4E2FF"/>
<path d="M39.136 331.193H7.612C3.408 331.193 0 327.785 0 323.581C0 319.377 3.408 315.969 7.612 315.969H39.137C43.341 315.969 46.749 319.377 46.749 323.581C46.749 327.785 43.34 331.193 39.136 331.193Z" fill="#C4E2FF"/>
</g>
<defs>
<clipPath id="clip0_44:1550">
<rect width="512" height="512" fill="white"/>
</clipPath>
</defs>
</svg>
